<?xml version="1.0" encoding="UTF-8" standalone="no"?>
<svg width="59px" height="41px" viewBox="0 0 59 41" version="1.1" xmlns="http://www.w3.org/2000/svg" xmlns:xlink="http://www.w3.org/1999/xlink" xmlns:sketch="http://www.bohemiancoding.com/sketch/ns">
    <!-- Generator: Sketch 3.3.2 (12043) - http://www.bohemiancoding.com/sketch -->
    <title>Slice 1</title>
    <desc>Created with Sketch.</desc>
    <defs>
        <path id="path-1" d="M51.3713783,3.43929487 C51.3713783,1.54006905 52.9088775,0 54.8081856,0 C56.7109635,0 58.2533287,1.54006905 58.2533287,3.43929487 C58.2533287,5.33921564 56.7109635,6.87997396 54.8081856,6.87997396 C52.9088775,6.87997396 51.3713783,5.33921564 51.3713783,3.43929487"></path>
        <radialGradient cx="-713.752685%" cy="-709.040067%" fx="-713.752685%" fy="-709.040067%" r="0.33557047%" id="radialGradient-3">
            <stop stop-color="#AEBA83" offset="0%"></stop>
            <stop stop-color="#567929" offset="50.5618%"></stop>
            <stop stop-color="#6C8228" offset="100%"></stop>
        </radialGradient>
    </defs>
    <g id="Page-1" stroke="none" stroke-width="1" fill="none" fill-rule="evenodd" sketch:type="MSPage">
        <path d="M22.4800635,10.5511578 C18.70446,7.48328543 15.9410546,6.59118448 12.9489693,6.59118448 C8.84885068,6.59118448 5.9219727,8.43070339 5.9219727,11.1091023 C5.9219727,18.4171915 25.1164055,18.3056477 25.1164055,30.410514 C25.1164055,36.37848 19.846033,40.7295229 12.6890145,40.7295229 C7.87320162,40.7295229 3.96838434,39.6161849 0.261065368,37.2173571 L0.261065368,30.2989703 C3.51437853,33.8678571 7.61204303,35.8207672 11.9715838,35.8207672 C16.9160778,35.8207672 19.1942731,33.1412129 19.1942731,31.0226059 C19.1942731,23.1584254 0,22.2653923 0,11.8336589 C0,5.64191904 5.33620715,1.68124511 13.4711664,1.68124511 C16.8514229,1.68124511 19.3560333,2.57404661 22.4800607,4.35918071 L22.4800607,10.5511578" id="path42" fill="#6C8228" sketch:type="MSShapeGroup"></path>
        <path d="M34.6948265,27.3577081 C34.693668,25.0738732 35.5832503,22.9314298 37.1959868,21.3191621 C38.8121876,19.7034199 40.9575635,18.8164066 43.2378838,18.8164066 C44.6959921,18.8164066 46.0927487,19.1813488 47.3381211,19.8637918 L37.9790854,29.2192131 L35.7436712,31.4551463 L32.259409,34.9384078 C32.7133414,35.5947009 33.2230644,36.2183637 33.7982985,36.794588 C36.3212167,39.3160867 39.6716818,40.7045805 43.2390479,40.7045805 C46.8031645,40.7045805 50.1582637,39.3156234 52.6777091,36.7964383 C56.3804886,33.0942589 57.4362761,27.7476421 55.8733116,23.0931888 L51.7730771,27.1920141 C51.8170591,29.4348908 50.9876614,31.6907254 49.2802526,33.3983388 C47.6672873,35.0106064 45.5207585,35.8983147 43.239048,35.8997045 C41.7823299,35.8997045 40.3844148,35.5340674 39.1425123,34.8520876 L48.6492306,25.3476363 L50.7334922,23.2651315 L54.2177544,19.7795564 C53.767292,19.1271956 53.2624292,18.5000611 52.6800206,17.9187463 C50.1594194,15.3975018 46.8054816,14.0091958 43.2378838,14.0103766 C39.6716819,14.0103766 36.3212168,15.3975018 33.7982929,17.9187463 C31.2763015,20.4400162 29.8888019,23.7929908 29.8888019,27.3577081 C29.8888019,28.834138 30.1394983,30.2696069 30.5982909,31.6298631 L34.705242,27.5234021 C34.705242,27.5234021 34.6948265,27.4125533 34.6948265,27.3577081 Z" id="path44" fill="#6C8228" sketch:type="MSShapeGroup"></path>
        <mask id="mask-2" sketch:name="path58" fill="white">
            <use xlink:href="#path-1"></use>
        </mask>
        <g id="path58"></g>
        <path d="M54.4732323,0 L54.4732323,0.0231415164 L54.3111951,0.0231415164 L54.3111951,0.0462830328 L54.149158,0.0462830328 L54.149158,0.0694245492 L54.0565653,0.0694245492 L54.0565653,0.0925660656 L53.9639727,0.0925660656 L53.9639727,0.115707582 L53.87138,0.115707582 L53.87138,0.138849098 L53.7787874,0.138849098 L53.7787874,0.161990615 L53.732491,0.161990615 L53.732491,0.185132131 L53.6630465,0.185132131 L53.6630465,0.208273648 L53.593602,0.208273648 L53.593602,0.231415164 L53.5241575,0.231415164 L53.5241575,0.25455668 L53.4778612,0.25455668 L53.4778612,0.277698197 L53.4315649,0.277698197 L53.4315649,0.300839713 L53.3852686,0.300839713 L53.3852686,0.32398123 L53.3389722,0.32398123 L53.3389722,0.347122746 L53.2695277,0.347122746 L53.2695277,0.370264262 L53.2232314,0.370264262 L53.2232314,0.393405779 L53.1769351,0.393405779 L53.1769351,0.416547295 L53.1537869,0.416547295 L53.1537869,0.439688811 L53.1074906,0.439688811 L53.1074906,0.462830328 L53.0611943,0.462830328 L53.0611943,0.485971844 L53.0380461,0.485971844 L53.0380461,0.509113361 L52.9917498,0.509113361 L52.9917498,0.532254877 L52.9454534,0.532254877 L52.9454534,0.555396393 L52.9223053,0.555396393 L52.9223053,0.57853791 L52.8760089,0.57853791 L52.8760089,0.601679426 L52.8528608,0.601679426 L52.8528608,0.624820943 L52.8297126,0.624820943 L52.8297126,0.647962459 L52.7834163,0.647962459 L52.7834163,0.671103975 L52.7602681,0.671103975 L52.7602681,0.694245492 L52.73712,0.694245492 L52.73712,0.717387008 L52.6908236,0.717387008 L52.6908236,0.740528525 L52.6676755,0.740528525 L52.6676755,0.763670041 L52.6445273,0.763670041 L52.6445273,0.786811557 L52.598231,0.786811557 L52.598231,0.809953074 L52.5750828,0.809953074 L52.5750828,0.83309459 L52.5519346,0.83309459 L52.5519346,0.856236107 L52.5287865,0.856236107 L52.5287865,0.879377623 L52.5056383,0.879377623 L52.5056383,0.902519139 L52.4824901,0.902519139 L52.4824901,0.925660656 L52.459342,0.925660656 L52.459342,0.948802172 L52.4361938,0.948802172 L52.4361938,0.971943689 L52.4130457,0.971943689 L52.4130457,0.995085205 L52.3898975,0.995085205 L52.3898975,1.01822672 L52.3667493,1.01822672 L52.3667493,1.04136824 L52.3436012,1.04136824 L52.3436012,1.06450975 L52.320453,1.06450975 L52.320453,1.08765127 L52.2973048,1.08765127 L52.2973048,1.11079279 L52.2741567,1.11079279 L52.2741567,1.1339343 L52.2510085,1.1339343 L52.2510085,1.15707582 L52.2278603,1.15707582 L52.2278603,1.18021734 L52.2047122,1.18021734 L52.2047122,1.20335885 L52.181564,1.20335885 L52.181564,1.22650037 L52.1584158,1.22650037 L52.1584158,1.2727834 L52.1352677,1.2727834 L52.1352677,1.29592492 L52.1121195,1.29592492 L52.1121195,1.31906643 L52.0889714,1.31906643 L52.0889714,1.36534947 L52.0658232,1.36534947 L52.0658232,1.38849098 L52.042675,1.38849098 L52.042675,1.4116325 L52.0195269,1.4116325 L52.0195269,1.45791553 L51.9963787,1.45791553 L51.9963787,1.48105705 L51.9732305,1.48105705 L51.9732305,1.50419857 L51.9500824,1.50419857 L51.9500824,1.5504816 L51.9269342,1.5504816 L51.9269342,1.59676463 L51.903786,1.59676463 L51.903786,1.61990615 L51.8806379,1.61990615 L51.8806379,1.66618918 L51.8574897,1.66618918 L51.8574897,1.71247221 L51.8343415,1.71247221 L51.8343415,1.73561373 L51.8111934,1.73561373 L51.8111934,1.78189676 L51.7880452,1.78189676 L51.7880452,1.8281798 L51.7648971,1.8281798 L51.7648971,1.87446283 L51.7417489,1.87446283 L51.7417489,1.92074586 L51.7186007,1.92074586 L51.7186007,1.96702889 L51.6954526,1.96702889 L51.6954526,2.01331193 L51.6723044,2.01331193 L51.6723044,2.05959496 L51.6491562,2.05959496 L51.6491562,2.10587799 L51.6260081,2.10587799 L51.6260081,2.17530254 L51.6028599,2.17530254 L51.6028599,2.24472709 L51.5797117,2.24472709 L51.5797117,2.31415164 L51.5565636,2.31415164 L51.5565636,2.36043467 L51.5334154,2.36043467 L51.5334154,2.45300074 L51.5102672,2.45300074 L51.5102672,2.52242529 L51.4871191,2.52242529 L51.4871191,2.61499135 L51.4639709,2.61499135 L51.4639709,2.70755742 L51.4408228,2.70755742 L51.4408228,2.84640652 L51.4176746,2.84640652 L51.4176746,2.98525561 L51.3945264,2.98525561 L51.3945264,3.28609533 L51.3713783,3.28609533 L51.3713783,3.61007656 L51.3945264,3.61007656 L51.3945264,3.88777475 L51.4176746,3.88777475 L51.4176746,4.04976537 L51.4408228,4.04976537 L51.4408228,4.16547295 L51.4639709,4.16547295 L51.4639709,4.25803902 L51.4871191,4.25803902 L51.4871191,4.35060508 L51.5102672,4.35060508 L51.5102672,4.44317115 L51.5334154,4.44317115 L51.5334154,4.5125957 L51.5565636,4.5125957 L51.5565636,4.58202025 L51.5797117,4.58202025 L51.5797117,4.6514448 L51.6028599,4.6514448 L51.6028599,4.69772783 L51.6260081,4.69772783 L51.6260081,4.76715238 L51.6491562,4.76715238 L51.6491562,4.81343541 L51.6723044,4.81343541 L51.6723044,4.88285996 L51.6954526,4.88285996 L51.6954526,4.92914299 L51.7186007,4.92914299 L51.7186007,4.97542602 L51.7417489,4.97542602 L51.7417489,5.02170906 L51.7648971,5.02170906 L51.7648971,5.06799209 L51.7880452,5.06799209 L51.7880452,5.11427512 L51.8111934,5.11427512 L51.8111934,5.13741664 L51.8343415,5.13741664 L51.8343415,5.18369967 L51.8574897,5.18369967 L51.8574897,5.2299827 L51.8806379,5.2299827 L51.8806379,5.25312422 L51.903786,5.25312422 L51.903786,5.29940725 L51.9269342,5.29940725 L51.9269342,5.34569029 L51.9500824,5.34569029 L51.9500824,5.3688318 L51.9732305,5.3688318 L51.9732305,5.41511484 L51.9963787,5.41511484 L51.9963787,5.43825635 L52.0195269,5.43825635 L52.0195269,5.46139787 L52.042675,5.46139787 L52.042675,5.5076809 L52.0658232,5.5076809 L52.0658232,5.53082242 L52.0889714,5.53082242 L52.0889714,5.55396393 L52.1121195,5.55396393 L52.1121195,5.60024697 L52.1352677,5.60024697 L52.1352677,5.62338848 L52.1584158,5.62338848 L52.1584158,5.64653 L52.181564,5.64653 L52.181564,5.66967152 L52.2047122,5.66967152 L52.2047122,5.69281303 L52.2278603,5.69281303 L52.2278603,5.73909607 L52.2510085,5.73909607 L52.2510085,5.76223758 L52.2741567,5.76223758 L52.2741567,5.7853791 L52.2973048,5.7853791 L52.2973048,5.80852061 L52.320453,5.80852061 L52.320453,5.83166213 L52.3436012,5.83166213 L52.3436012,5.85480365 L52.3667493,5.85480365 L52.3667493,5.87794516 L52.3898975,5.87794516 L52.3898975,5.90108668 L52.4130457,5.90108668 L52.4130457,5.9242282 L52.4361938,5.9242282 L52.4361938,5.94736971 L52.459342,5.94736971 L52.459342,5.97051123 L52.4824901,5.97051123 L52.4824901,5.99365275 L52.5056383,5.99365275 L52.5056383,6.01679426 L52.5287865,6.01679426 L52.5287865,6.03993578 L52.5750828,6.03993578 L52.5750828,6.0630773 L52.598231,6.0630773 L52.598231,6.08621881 L52.6213791,6.08621881 L52.6213791,6.10936033 L52.6445273,6.10936033 L52.6445273,6.13250184 L52.6676755,6.13250184 L52.6676755,6.15564336 L52.7139718,6.15564336 L52.7139718,6.17878488 L52.73712,6.17878488 L52.73712,6.20192639 L52.7602681,6.20192639 L52.7602681,6.22506791 L52.8065645,6.22506791 L52.8065645,6.24820943 L52.8297126,6.24820943 L52.8297126,6.27135094 L52.8528608,6.27135094 L52.8528608,6.29449246 L52.8991571,6.29449246 L52.8991571,6.31763398 L52.9223053,6.31763398 L52.9223053,6.34077549 L52.9686016,6.34077549 L52.9686016,6.36391701 L53.0148979,6.36391701 L53.0148979,6.38705852 L53.0380461,6.38705852 L53.0380461,6.41020004 L53.0843424,6.41020004 L53.0843424,6.43334156 L53.1306388,6.43334156 L53.1306388,6.45648307 L53.1537869,6.45648307 L53.1537869,6.47962459 L53.2000832,6.47962459 L53.2000832,6.50276611 L53.2463796,6.50276611 L53.2463796,6.52590762 L53.2926759,6.52590762 L53.2926759,6.54904914 L53.3389722,6.54904914 L53.3389722,6.57219066 L53.3852686,6.57219066 L53.3852686,6.59533217 L53.4315649,6.59533217 L53.4315649,6.61847369 L53.5010094,6.61847369 L53.5010094,6.6416152 L53.5473057,6.6416152 L53.5473057,6.66475672 L53.6167502,6.66475672 L53.6167502,6.68789824 L53.6861947,6.68789824 L53.6861947,6.71103975 L53.7556392,6.71103975 L53.7556392,6.73418127 L53.8250837,6.73418127 L53.8250837,6.75732279 L53.8945282,6.75732279 L53.8945282,6.7804643 L53.9871208,6.7804643 L53.9871208,6.80360582 L54.0797135,6.80360582 L54.0797135,6.82674734 L54.2186025,6.82674734 L54.2186025,6.84988885 L54.3574915,6.84988885 L54.3574915,6.87303037 L55.3065662,6.87303037 L55.3065662,6.84988885 L55.4454552,6.84988885 L55.4454552,6.82674734 L55.5843442,6.82674734 L55.5843442,6.80360582 L55.6769368,6.80360582 L55.6769368,6.7804643 L55.7695295,6.7804643 L55.7695295,6.75732279 L55.838974,6.75732279 L55.838974,6.73418127 L55.9084185,6.73418127 L55.9084185,6.71103975 L55.977863,6.71103975 L55.977863,6.68789824 L56.0473075,6.68789824 L56.0473075,6.66475672 L56.116752,6.66475672 L56.116752,6.6416152 L56.1630483,6.6416152 L56.1630483,6.61847369 L56.2093446,6.61847369 L56.2093446,6.59533217 L56.2787891,6.59533217 L56.2787891,6.57219066 L56.3250854,6.57219066 L56.3250854,6.54904914 L56.3713818,6.54904914 L56.3713818,6.52590762 L56.4176781,6.52590762 L56.4176781,6.50276611 L56.4639744,6.50276611 L56.4639744,6.47962459 L56.5102708,6.47962459 L56.5102708,6.45648307 L56.5334189,6.45648307 L56.5334189,6.43334156 L56.5797152,6.43334156 L56.5797152,6.41020004 L56.6260116,6.41020004 L56.6260116,6.38705852 L56.6491597,6.38705852 L56.6491597,6.36391701 L56.6954561,6.36391701 L56.6954561,6.34077549 L56.7417524,6.34077549 L56.7417524,6.31763398 L56.7649006,6.31763398 L56.7649006,6.29449246 L56.7880487,6.29449246 L56.7880487,6.27135094 L56.8343451,6.27135094 L56.8343451,6.24820943 L56.8574932,6.24820943 L56.8574932,6.22506791 L56.8806414,6.22506791 L56.8806414,6.20192639 L56.9269377,6.20192639 L56.9269377,6.17878488 L56.9500859,6.17878488 L56.9500859,6.15564336 L56.9963822,6.15564336 L56.9963822,6.13250184 L57.0195304,6.13250184 L57.0195304,6.10936033 L57.0426785,6.10936033 L57.0426785,6.08621881 L57.0658267,6.08621881 L57.0658267,6.0630773 L57.0889749,6.0630773 L57.0889749,6.03993578 L57.112123,6.03993578 L57.112123,6.01679426 L57.1352712,6.01679426 L57.1352712,5.99365275 L57.1815675,5.99365275 L57.1815675,5.97051123 L57.2047157,5.97051123 L57.2047157,5.94736971 L57.2278639,5.94736971 L57.2278639,5.9242282 L57.251012,5.9242282 L57.251012,5.90108668 L57.2741602,5.90108668 L57.2741602,5.87794516 L57.2973083,5.87794516 L57.2973083,5.85480365 L57.3204565,5.85480365 L57.3204565,5.83166213 L57.3436047,5.83166213 L57.3436047,5.80852061 L57.3667528,5.80852061 L57.3667528,5.76223758 L57.389901,5.76223758 L57.389901,5.73909607 L57.4130492,5.73909607 L57.4130492,5.71595455 L57.4361973,5.71595455 L57.4361973,5.69281303 L57.4593455,5.69281303 L57.4593455,5.66967152 L57.4824937,5.66967152 L57.4824937,5.64653 L57.5056418,5.64653 L57.5056418,5.62338848 L57.52879,5.62338848 L57.52879,5.57710545 L57.5519382,5.57710545 L57.5519382,5.55396393 L57.5750863,5.55396393 L57.5750863,5.53082242 L57.5982345,5.53082242 L57.5982345,5.48453939 L57.6213826,5.48453939 L57.6213826,5.46139787 L57.6445308,5.46139787 L57.6445308,5.43825635 L57.667679,5.43825635 L57.667679,5.39197332 L57.6908271,5.39197332 L57.6908271,5.3688318 L57.7139753,5.3688318 L57.7139753,5.32254877 L57.7371235,5.32254877 L57.7371235,5.29940725 L57.7602716,5.29940725 L57.7602716,5.25312422 L57.7834198,5.25312422 L57.7834198,5.20684119 L57.806568,5.20684119 L57.806568,5.18369967 L57.8297161,5.18369967 L57.8297161,5.13741664 L57.8528643,5.13741664 L57.8528643,5.09113361 L57.8760125,5.09113361 L57.8760125,5.04485057 L57.8991606,5.04485057 L57.8991606,4.99856754 L57.9223088,4.99856754 L57.9223088,4.95228451 L57.9454569,4.95228451 L57.9454569,4.90600148 L57.9686051,4.90600148 L57.9686051,4.85971844 L57.9917533,4.85971844 L57.9917533,4.81343541 L58.0149014,4.81343541 L58.0149014,4.74401086 L58.0380496,4.74401086 L58.0380496,4.69772783 L58.0611978,4.69772783 L58.0611978,4.62830328 L58.0843459,4.62830328 L58.0843459,4.55887873 L58.1074941,4.55887873 L58.1074941,4.48945418 L58.1306423,4.48945418 L58.1306423,4.42002963 L58.1537904,4.42002963 L58.1537904,4.32746357 L58.1769386,4.32746357 L58.1769386,4.2348975 L58.2000868,4.2348975 L58.2000868,4.14233143 L58.2232349,4.14233143 L58.2232349,3.98034082 L58.2463831,3.98034082 L58.2463831,3.84149172 L58.2695313,3.84149172 L58.2695313,3.05468016 L58.2463831,3.05468016 L58.2463831,2.89268955 L58.2232349,2.89268955 L58.2232349,2.75384045 L58.2000868,2.75384045 L58.2000868,2.66127439 L58.1769386,2.66127439 L58.1769386,2.56870832 L58.1537904,2.56870832 L58.1537904,2.47614225 L58.1306423,2.47614225 L58.1306423,2.38357619 L58.1074941,2.38357619 L58.1074941,2.33729316 L58.0843459,2.33729316 L58.0843459,2.26786861 L58.0611978,2.26786861 L58.0611978,2.19844406 L58.0380496,2.19844406 L58.0380496,2.12901951 L58.0149014,2.12901951 L58.0149014,2.08273648 L57.9917533,2.08273648 L57.9917533,2.03645344 L57.9686051,2.03645344 L57.9686051,1.99017041 L57.9454569,1.99017041 L57.9454569,1.94388738 L57.9223088,1.94388738 L57.9223088,1.89760434 L57.8991606,1.89760434 L57.8991606,1.8281798 L57.8760125,1.8281798 L57.8760125,1.78189676 L57.8528643,1.78189676 L57.8528643,1.75875525 L57.8297161,1.75875525 L57.8297161,1.71247221 L57.806568,1.71247221 L57.806568,1.66618918 L57.7834198,1.66618918 L57.7834198,1.64304766 L57.7602716,1.64304766 L57.7602716,1.59676463 L57.7371235,1.59676463 L57.7371235,1.5504816 L57.7139753,1.5504816 L57.7139753,1.52734008 L57.6908271,1.52734008 L57.6908271,1.48105705 L57.667679,1.48105705 L57.667679,1.45791553 L57.6445308,1.45791553 L57.6445308,1.43477402 L57.6213826,1.43477402 L57.6213826,1.38849098 L57.5982345,1.38849098 L57.5982345,1.36534947 L57.5750863,1.36534947 L57.5750863,1.34220795 L57.5519382,1.34220795 L57.5519382,1.29592492 L57.52879,1.29592492 L57.52879,1.2727834 L57.5056418,1.2727834 L57.5056418,1.24964189 L57.4824937,1.24964189 L57.4824937,1.22650037 L57.4593455,1.22650037 L57.4593455,1.18021734 L57.4361973,1.18021734 L57.4361973,1.15707582 L57.4130492,1.15707582 L57.4130492,1.1339343 L57.389901,1.1339343 L57.389901,1.11079279 L57.3667528,1.11079279 L57.3667528,1.08765127 L57.3436047,1.08765127 L57.3436047,1.06450975 L57.3204565,1.06450975 L57.3204565,1.04136824 L57.2973083,1.04136824 L57.2973083,1.01822672 L57.2741602,1.01822672 L57.2741602,0.995085205 L57.251012,0.995085205 L57.251012,0.971943689 L57.2278639,0.971943689 L57.2278639,0.948802172 L57.2047157,0.948802172 L57.2047157,0.925660656 L57.1815675,0.925660656 L57.1815675,0.902519139 L57.1584194,0.902519139 L57.1584194,0.879377623 L57.1352712,0.879377623 L57.1352712,0.856236107 L57.112123,0.856236107 L57.112123,0.83309459 L57.0889749,0.83309459 L57.0889749,0.809953074 L57.0426785,0.809953074 L57.0426785,0.786811557 L57.0195304,0.786811557 L57.0195304,0.763670041 L56.9963822,0.763670041 L56.9963822,0.740528525 L56.973234,0.740528525 L56.973234,0.717387008 L56.9269377,0.717387008 L56.9269377,0.694245492 L56.9037896,0.694245492 L56.9037896,0.671103975 L56.8806414,0.671103975 L56.8806414,0.647962459 L56.8343451,0.647962459 L56.8343451,0.624820943 L56.8111969,0.624820943 L56.8111969,0.601679426 L56.7880487,0.601679426 L56.7880487,0.57853791 L56.7417524,0.57853791 L56.7417524,0.555396393 L56.6954561,0.555396393 L56.6954561,0.532254877 L56.6723079,0.532254877 L56.6723079,0.509113361 L56.6260116,0.509113361 L56.6260116,0.485971844 L56.6028634,0.485971844 L56.6028634,0.462830328 L56.5565671,0.462830328 L56.5565671,0.439688811 L56.5102708,0.439688811 L56.5102708,0.416547295 L56.4871226,0.416547295 L56.4871226,0.393405779 L56.4176781,0.393405779 L56.4176781,0.370264262 L56.3713818,0.370264262 L56.3713818,0.347122746 L56.3250854,0.347122746 L56.3250854,0.32398123 L56.2787891,0.32398123 L56.2787891,0.300839713 L56.2324928,0.300839713 L56.2324928,0.277698197 L56.1861965,0.277698197 L56.1861965,0.25455668 L56.116752,0.25455668 L56.116752,0.231415164 L56.0704556,0.231415164 L56.0704556,0.208273648 L56.0010111,0.208273648 L56.0010111,0.185132131 L55.9315666,0.185132131 L55.9315666,0.161990615 L55.8852703,0.161990615 L55.8852703,0.138849098 L55.7926777,0.138849098 L55.7926777,0.115707582 L55.700085,0.115707582 L55.700085,0.0925660656 L55.6074923,0.0925660656 L55.6074923,0.0694245492 L55.5148997,0.0694245492 L55.5148997,0.0462830328 L55.3528625,0.0462830328 L55.3528625,0.0231415164 L55.1908254,0.0231415164 L55.1908254,0" id="path68" fill="url(#radialGradient-3)" sketch:type="MSShapeGroup" mask="url(#mask-2)"></path>
    </g>
</svg>